<svg xmlns="http://www.w3.org/2000/svg" enable-background="new 0 0 32 32" viewBox="0 0 32 32" id="lamp" fill="#01C5FF"><path d="M10.3720703,18.3027344c0.8961792,0.6524658,1.512207,1.6149902,1.7525024,2.6845703h-1.0386353v2h9.7460938v-2h-0.9588623
	c0.2359619-1.0702515,0.84198-2.0254517,1.7244873-2.6625977c2.4052734-1.7353516,3.7431641-4.421875,3.6708984-7.3701172
	c-0.1152344-4.7070312-3.9169922-8.6318359-8.6552734-8.9350586C14.0097656,1.855957,11.5175781,2.7382812,9.625,4.5146484
	c-1.8681641,1.7519531-2.8964844,4.1201172-2.8964844,6.6679688C6.7285156,14.0224609,8.0566406,16.6176758,10.3720703,18.3027344z
	 M16.4863281,4.015625c3.7128906,0.2373047,6.6923828,3.3071289,6.7822266,6.987793
	c0.0556641,2.2788086-0.9794922,4.355957-2.8408203,5.699707c-1.4023438,1.0117188-2.3300781,2.5664062-2.5917969,4.2841797
	l-3.6738281-0.0004883c-0.2646484-1.7124023-1.2001953-3.2729492-2.6132812-4.3012695
	c-1.8193359-1.3232422-2.8203125-3.277832-2.8203125-5.5029297c0-1.9892578,0.8046875-3.8393555,2.2646484-5.2094727
	C12.4794922,4.5791016,14.421875,3.8764648,16.4863281,4.015625z"></path><path d="M19.7695312,11.0893555l0.0244141,0.9995117l2-0.0488281l-0.0244141-0.9995117
	c-0.0703125-2.862793-2.4833984-5.3427734-5.3798828-5.5283203l-0.9970703-0.0639648l-0.1279297,1.9960938l0.9980469,0.0639648
	C18.1513672,7.6293945,19.7246094,9.2358398,19.7695312,11.0893555z"></path><rect width="6.779" height="2" x="12.569" y="24.574"></rect><path d="M15.96875,28c-0.5517578,0-0.9951172,0.4477539-0.9951172,1s0.453125,1,1.0048828,1c0.5527344,0,1-0.4477539,1-1
	s-0.4472656-1-1-1H15.96875z"></path></svg>